<svg width="23" height="15" viewBox="0 0 23 15" fill="none" xmlns="http://www.w3.org/2000/svg">
<path d="M16.1406 14.1094C15.8594 13.8281 15.8594 13.5469 16.1406 13.2656L20.8516 8.0625H0.8125C0.4375 8.0625 0.25 7.875 0.25 7.5C0.25 7.125 0.4375 6.9375 0.8125 6.9375H20.8516L16.1406 1.73438C15.8594 1.45312 15.8594 1.17188 16.1406 0.890625C16.4219 0.609375 16.7031 0.609375 16.9844 0.890625C20.6875 4.96875 22.5625 7.03125 22.6094 7.07812C22.7031 7.17188 22.75 7.3125 22.75 7.5C22.75 7.6875 22.7031 7.82812 22.6094 7.92188L16.9844 14.1094C16.8906 14.2031 16.75 14.25 16.5625 14.25C16.375 14.25 16.2344 14.2031 16.1406 14.1094Z" fill="#F9F9F9"/>
</svg>
